Coordinates
nRows=8
nColumns=38

# SIMM Motion File Header:
name Coordinates
datacolumns 38
datarows 8
otherdata 1
range 1.28230000000000000000 1.28929999999999990000

Units are S.I. units (second, meters, Newtons, ...)
Angles are in degrees.

endheader
time	pelvis_tilt	pelvis_list	pelvis_rotation	pelvis_tx	pelvis_ty	pelvis_tz	hip_flexion_r	hip_adduction_r	hip_rotation_r	knee_angle_r	ankle_angle_r	subtalar_angle_r	mtp_angle_r	hip_flexion_l	hip_adduction_l	hip_rotation_l	knee_angle_l	ankle_angle_l	subtalar_angle_l	mtp_angle_l	lumbar_extension	lumbar_bending	lumbar_rotation	arm_flex_r	arm_add_r	arm_rot_r	elbow_flex_r	pro_sup_r	wrist_flex_r	wrist_dev_r	arm_flex_l	arm_add_l	arm_rot_l	elbow_flex_l	pro_sup_l	wrist_flex_l	wrist_dev_l
      1.28230000000000000000	     -1.42667877110518870000	      1.59182029858453400000	      3.52224409193636890000	      0.81513114079707660000	      0.99589799350280228000	     -0.38784994224263963000	     34.74488335171284300000	     -1.74222682663508070000	     -4.67226183670145630000	    -21.73098819705916200000	     -0.31547298690929859000	      0.00000000000000000000	      0.00000000000000000000	    -19.71620822985153500000	      1.71435362663314980000	      0.27458464272653371000	    -64.69328928177181100000	    -25.76459251019467800000	      0.00000000000000000000	      0.00000000000000000000	    -12.17968949491692500000	      2.39254779236319330000	    -19.77584927255712800000	    -49.35580059629209200000	    -35.25556278161740700000	    -29.20935273856602900000	    109.52060106834287000000	     74.90400894680709600000	      0.00000000000000000000	      0.00000000000000000000	     -9.23806517053574260000	    -35.07879719384833800000	     15.82071911345863500000	    132.79430236210391000000	     87.30867222897558100000	      0.00000000000000000000	      0.00000000000000000000
      1.28329999999999990000	     -1.37414086982185560000	      1.65632137417997670000	      3.43199421496091310000	      0.81518826374572506000	      0.99547415138020157000	     -0.38763871255422816000	     34.52746801417616500000	     -1.71395375604811860000	     -4.56274266317359610000	    -21.36884477801352500000	     -0.38977915200604818000	      0.00000000000000000228	      0.00000000000000000038	    -19.54788464085928400000	      1.77440643286008190000	      0.14158836089338728000	    -65.55368435444729900000	    -25.61255969185769400000	      0.00000000000000000074	      0.00000000000000000230	    -12.26462939300278200000	      2.32565977857597030000	    -19.72950731879722100000	    -49.18159058656239300000	    -35.31075394964118900000	    -29.20915106048120400000	    109.55622888144396000000	     74.92818472720512100000	      0.00000000000000000008	      0.00000000000000000101	     -9.65050512443245980000	    -35.03581762878440700000	     15.68635268285529700000	    132.71230116773708000000	     87.30552707452120800000	      0.00000000000000000040	      0.00000000000000000039
      1.28430000000000000000	     -1.32184050608508440000	      1.71872550307292780000	      3.34264189148403590000	      0.81524305854267243000	      0.99503972601955970000	     -0.38742627889781228000	     34.31340561461273400000	     -1.68550250800217260000	     -4.45383746670780050000	    -21.02411462975004100000	     -0.46292307054053855000	      0.00000000000000000608	      0.00000000000000000092	    -19.37707057054360900000	      1.83001384742303540000	      0.00752134001664072750	    -66.41424562294933800000	    -25.45395565371864400000	      0.00000000000000000110	      0.00000000000000000845	    -12.34871283051617800000	      2.26050277638133630000	    -19.68228234588110900000	    -49.00343756793639500000	    -35.36586202399493600000	    -29.20630002932439200000	    109.59127895801996000000	     74.95122904056896100000	      0.00000000000000000123	      0.00000000000000000238	    -10.06265102668467800000	    -34.99020221730792500000	     15.54861533564591600000	    132.62593912083474000000	     87.30627017320559000000	     -0.00000000000000000004	     -0.00000000000000000106
      1.28529999999999990000	     -1.26972325965618360000	      1.77898208338942280000	      3.25417522847944700000	      0.81529555420300059000	      0.99459498013187819000	     -0.38721265786523640000	     34.10262574807210000000	     -1.65674840957896000000	     -4.34524106682889500000	    -20.69670235738594500000	     -0.53639683229631041000	      0.00000000000000000990	      0.00000000000000000233	    -19.20387717022994800000	      1.88120779983124660000	     -0.12735012033014059000	    -67.27481725381478800000	    -25.28861044248016300000	      0.00000000000000000371	      0.00000000000000001438	    -12.43199737774388700000	      2.19714427053382800000	    -19.63416743056165000000	    -48.82126598896027800000	    -35.42091559510414800000	    -29.20072163351325400000	    109.62568574143572000000	     74.97298741161455400000	      0.00000000000000000145	      0.00000000000000000607	    -10.47442154655747600000	    -34.94196755447754300000	     15.40755640555451000000	    132.53521136948191000000	     87.31096952760171300000	      0.00000000000000000050	     -0.00000000000000000243
      1.28630000000000000000	     -1.21748843711961370000	      1.83702123702218590000	      3.16668490636560080000	      0.81534590799740114000	      0.99414054323535817000	     -0.38699798556296827000	     33.89466064262578000000	     -1.62760192276728090000	     -4.23709770132165180000	    -20.38635454999598900000	     -0.61023848382418044000	      0.00000000000000001381	      0.00000000000000000458	    -19.02870839323538400000	      1.92796253830479870000	     -0.26264494878728839000	    -68.13517038695758300000	    -25.11635888479321100000	      0.00000000000000001074	      0.00000000000000002039	    -12.51480534580971400000	      2.13570440218056800000	    -19.58525694950316500000	    -48.63497792550477100000	    -35.47594666135933700000	    -29.19232464501787300000	    109.65940195965118000000	     74.99325937947584500000	      0.00000000000000000113	      0.00000000000000001137	    -10.88569321755090500000	    -34.89116908353982900000	     15.26323268801922600000	    132.44013595562302000000	     87.31966930948556200000	      0.00000000000000000019	     -0.00000000000000000268
      1.28729999999999990000	     -1.16506998511115280000	      1.89277706444526190000	      3.08024162660605860000	      0.81539421447513571000	      0.99367667001300575000	     -0.38678238163824097000	     33.68935031678458400000	     -1.59797282786662810000	     -4.12946161897707050000	    -20.09290665806062400000	     -0.68487252314583369000	      0.00000000000000001973	      0.00000000000000000678	    -18.85168782892778700000	      1.97028620408165000000	     -0.39801474526415470000	    -68.99515949883515000000	    -24.93702123562771400000	      0.00000000000000001781	      0.00000000000000002790	    -12.59719945600676100000	      2.07628082796534970000	    -19.53563014727229700000	    -48.44450873106011800000	    -35.53099442493670100000	    -29.18102502808373400000	    109.69236876965292000000	     75.01185725610855600000	      0.00000000000000000056	      0.00000000000000001607	    -11.29640025567370100000	    -34.83782934838784200000	     15.11569110215394200000	    132.34071941310626000000	     87.33243368695990200000	      0.00000000000000000126	     -0.00000000000000000336
      1.28830000000000000000	     -1.11254346493364560000	      1.94619348483626960000	      2.99491276028446720000	      0.81544053348749168000	      0.99320337904530043000	     -0.38656596611747307000	     33.48671547787320400000	     -1.56778316024749280000	     -4.02239575290411100000	    -19.81625591091016900000	     -0.76072788297313954000	      0.00000000000000002680	      0.00000000000000000789	    -18.67276895741276400000	      2.00821109514329300000	     -0.53312729630129796000	    -69.85469293313168700000	    -24.75042290241163900000	      0.00000000000000002595	      0.00000000000000003354	    -12.67908692449267100000	      2.01895173787279880000	    -19.48536630167345200000	    -48.24981605466758300000	    -35.58610061103749400000	    -29.16674355899716900000	    109.72452292474919000000	     75.02860397166928400000	     -0.00000000000000000083	      0.00000000000000002169	    -11.70651182999592000000	    -34.78195441587911300000	     14.96497141579160900000	    132.23696416280728000000	     87.34932901324394500000	      0.00000000000000000341	     -0.00000000000000000458
      1.28929999999999990000	     -1.06006427518721710000	      1.99722396710835250000	      2.91076622397821220000	      0.81548489685855419000	      0.99272055473768239000	     -0.38634886228685117000	     33.28688202293313500000	     -1.53696439929065480000	     -3.91595727463511430000	    -19.55634431690926400000	     -0.83820653164973391000	      0.00000000000000003438	      0.00000000000000000875	    -18.49180696238383300000	      2.04178587748700350000	     -0.66766304415117339000	    -70.71371383996421400000	    -24.55640666970482800000	      0.00000000000000003515	      0.00000000000000004281	    -12.76029013726607400000	      1.96378129819426530000	    -19.43454748372573300000	    -48.05086972098661100000	    -35.64130675482155700000	    -29.14940420502602300000	    109.75580006234088000000	     75.04333167382968400000	     -0.00000000000000000367	      0.00000000000000002564	    -12.11601451150008500000	    -34.72354316910536200000	     14.81110911597199100000	    132.12887178833387000000	     87.37041313760499900000	      0.00000000000000000706	     -0.00000000000000000479
